<svg width="16" height="16" viewBox="0 0 16 16" fill="none"
    xmlns="http://www.w3.org/2000/svg">
    <path
        d="M11.5156 10.9844C11.8203 11.2656 11.8203 11.7578 11.5156 12.0391C11.375 12.1797 11.1875 12.25 11 12.25C10.7891 12.25 10.6016 12.1797 10.4609 12.0391L8 9.57812L5.51562 12.0391C5.375 12.1797 5.1875 12.25 5 12.25C4.78906 12.25 4.60156 12.1797 4.46094 12.0391C4.15625 11.7578 4.15625 11.2656 4.46094 10.9844L6.92188 8.5L4.46094 6.03906C4.15625 5.75781 4.15625 5.26562 4.46094 4.98438C4.74219 4.67969 5.23438 4.67969 5.51562 4.98438L8 7.44531L10.4609 4.98438C10.7422 4.67969 11.2344 4.67969 11.5156 4.98438C11.8203 5.26562 11.8203 5.75781 11.5156 6.03906L9.05469 8.52344L11.5156 10.9844Z"
        fill="#212529" />
</svg>